<svg width="136" height="60" viewBox="0 0 136 60" fill="none" xmlns="http://www.w3.org/2000/svg">
    <g clip-path="url(#clip0_87_35)">
        <path d="M21.9647 0.221993C21.1224 0.1572 20.2153 0.0924072 19.2434 0.0924072C9.39495 0.0924072 0 7.15482 0 15.3835C0 21.0205 3.23964 23.2234 8.42306 23.2234C6.86803 21.8628 5.44259 20.1782 5.44259 15.5779C5.44259 9.68174 9.07098 5.535 14.8375 3.91518V49.5293C15.3559 49.4645 15.8094 49.4645 16.3278 49.4645C24.686 49.4645 30.647 59.637 37.4502 59.637C41.8561 59.637 44.5774 56.5269 44.5774 52.9633C44.5774 52.3802 44.5126 51.797 44.383 51.2139C42.6336 52.0562 41.0138 52.5098 39.394 52.5098C32.0724 52.5098 27.4721 47.9743 21.9 46.7432V0.416369L21.9647 0.221993Z" fill="#C8DFE6"/>
        <path d="M43.0305 15.3187C33.3116 15.3187 30.3959 25.7504 30.3959 33.3311C30.3959 44.4755 36.7456 48.4278 42.5121 48.4278C49.5098 48.4278 53.5917 42.0133 53.5917 31.3873C53.5917 30.4802 53.5269 29.5731 53.5269 28.7308C57.4793 28.0829 61.7556 26.2039 63.4402 23.4178L62.4683 21.6684C60.3301 23.8714 57.1553 25.556 53.5917 25.556H53.2029C52.3606 19.7894 49.8337 15.3187 43.0305 15.3187ZM43.6784 43.5036C40.7627 43.5036 37.3935 41.495 37.3935 33.0719C37.3935 26.7223 39.3373 18.8823 44.7151 18.8823C46.6589 18.8823 48.3435 19.919 49.3802 22.8995C47.6956 22.9643 46.7885 23.677 46.7885 25.6856C46.7885 27.8885 47.8251 28.7956 50.2873 28.9252C50.3521 29.4435 50.3521 29.9619 50.3521 30.4802C50.3521 38.7089 48.2139 43.5036 43.6784 43.5036Z" fill="#C8DFE6"/>
        <path d="M70.2384 15.3187C60.5195 15.3187 57.6038 25.7504 57.6038 33.3311C57.6038 44.4755 63.9535 48.4278 69.72 48.4278C76.7177 48.4278 80.7996 42.0133 80.7996 31.3873C80.7996 30.4802 80.7348 29.5731 80.7348 28.7308C84.6872 28.0829 88.9635 26.2039 90.6481 23.4178L89.6762 21.6684C87.5381 23.8714 84.3632 25.556 80.7996 25.556H80.4108C79.5685 19.7894 77.0416 15.3187 70.2384 15.3187ZM70.8863 43.5036C67.9706 43.5036 64.6014 41.495 64.6014 33.0719C64.6014 26.7223 66.5452 18.8823 71.923 18.8823C73.8668 18.8823 75.5514 19.919 76.5881 22.8995C74.9035 22.9643 73.9964 23.677 73.9964 25.6856C73.9964 27.8885 75.0331 28.7956 77.4952 28.9252C77.56 29.4435 77.56 29.9619 77.56 30.4802C77.56 38.7089 75.4218 43.5036 70.8863 43.5036Z" fill="#C8DFE6"/>
        <path d="M85.5892 3.59118V48.039H92.0685V34.3029C93.3643 30.6098 95.1137 29.3139 97.3815 29.3139C99.5197 29.3139 101.463 30.4802 101.463 35.0157C101.463 35.858 101.399 40.3287 101.399 41.0414C101.399 45.0585 103.472 48.4278 108.72 48.4278C111.377 48.4278 115.718 47.5855 117.726 36.4411H115.329C114.292 41.3654 112.737 43.5035 110.47 43.5035C108.202 43.5035 107.943 41.3006 107.943 40.1343C107.943 39.0976 108.137 36.2467 108.137 34.4973C108.137 30.2858 107.036 24.3897 99.3253 24.3897H98.6773L109.498 15.6426H103.213L92.0685 26.2039V2.68408L85.5892 3.59118Z" fill="#C8DFE6"/>
        <path d="M135.482 23.7418C135.482 16.8738 131.141 15.3187 126.864 15.3187C117.534 15.3187 114.489 26.2039 114.489 33.4607C114.489 44.4107 121.033 48.4278 126.864 48.4278C131.659 48.4278 136 45.8361 136 41.9485C136 41.495 135.935 40.9119 135.87 40.3287C134.251 42.6613 131.659 43.5036 128.873 43.5036C125.18 43.5036 122.07 41.9485 121.422 35.0805C130.169 34.1086 135.482 29.7675 135.482 23.7418ZM121.357 32.5536C121.357 26.2039 123.56 18.4936 128.095 18.4936C130.169 18.4936 131.335 19.8542 131.335 23.0939C131.335 27.9533 127.447 31.5817 121.357 32.5536Z" fill="#C8DFE6"/>
    </g>
    <defs>
        <clipPath id="clip0_87_35">
            <rect width="136" height="59.5445" fill="white" transform="translate(0 0.0924072)"/>
        </clipPath>
    </defs>
</svg>